<?xml version="1.0" encoding="UTF-8"?>
<svg width="25px" height="26px" viewBox="0 0 25 26" version="1.1" xmlns="http://www.w3.org/2000/svg" xmlns:xlink="http://www.w3.org/1999/xlink">
    <!-- Generator: Sketch 41.2 (35397) - http://www.bohemiancoding.com/sketch -->
    <title>Untitled</title>
    <desc>Created with Sketch.</desc>
    <defs></defs>
    <g id="Page-1" stroke="none" stroke-width="1" fill="none" fill-rule="evenodd">
        <g id="ico-settings" fill="#FFFFFF">
            <path d="M12.5,25 C11.8,25 11,24.9 10.2,24.8 C9.7,24.7 9.3,24.3 9.2,23.8 L8.7,21.4 C8.1,21.1 7.5,20.8 7,20.4 L4.7,21.2 C4.2,21.4 3.7,21.3 3.3,20.8 C2.3,19.6 1.5,18.3 1,16.9 C0.8,16.4 1,15.8 1.4,15.5 L3.3,14 C3.3,13.7 3.2,13.4 3.2,13 C3.2,12.6 3.2,12.3 3.3,12 L1.4,10.4 C1.1,10.2 0.9,9.6 1.1,9 C1.5,7.6 2.3,6.3 3.4,5.1 C3.7,4.7 4.3,4.6 4.8,4.8 L7,5.6 C7.5,5.2 8.1,4.9 8.7,4.6 L9.2,2.2 C9.3,1.7 9.7,1.3 10.2,1.2 C11.7,0.9 13.3,0.9 14.8,1.2 C15.3,1.3 15.7,1.7 15.8,2.2 L16.3,4.6 C16.9,4.9 17.5,5.2 18,5.6 L20.3,4.8 C20.7,4.6 21.3,4.7 21.7,5.2 C22.7,6.4 23.5,7.7 24,9.1 C24.2,9.6 24,10.2 23.6,10.5 L21.7,12 C21.7,12.3 21.8,12.6 21.8,13 C21.8,13.4 21.8,13.7 21.7,14 L23.5,15.6 C23.9,15.9 24.1,16.5 23.8,17 C23.4,18.4 22.6,19.7 21.5,20.9 C21.2,21.3 20.6,21.4 20.1,21.2 L18,20.4 C17.5,20.8 16.9,21.1 16.3,21.4 L15.8,23.8 C15.7,24.3 15.3,24.7 14.8,24.8 C14,24.9 13.2,25 12.5,25 Z M10.7,23.3 C12,23.5 13,23.5 14.3,23.3 L14.9,20.3 L15.3,20.1 C16,19.8 16.7,19.4 17.3,18.9 L17.6,18.6 L20.5,19.6 C21.3,18.7 21.9,17.6 22.3,16.5 L20,14.5 L20.1,14.1 C20.2,13.8 20.2,13.4 20.2,12.9 C20.2,12.5 20.2,12.1 20.1,11.7 L20,11.4 L22.3,9.4 C21.9,8.3 21.3,7.3 20.5,6.3 L17.6,7.3 L17.3,7 C16.7,6.5 16,6.1 15.3,5.8 L14.9,5.6 L14.3,2.6 C13.1,2.4 11.9,2.4 10.7,2.6 L10.1,5.6 L9.7,5.9 C9,6.2 8.3,6.6 7.7,7.1 L7.4,7.3 L4.5,6.3 C3.6,7.3 3,8.3 2.6,9.4 L4.9,11.4 L4.8,11.8 C4.7,12.1 4.7,12.5 4.7,13 C4.7,13.5 4.7,13.8 4.8,14.2 L5,14.6 L2.7,16.6 C3.1,17.7 3.7,18.7 4.5,19.7 L7.4,18.7 L7.7,19 C8.3,19.5 9,19.9 9.7,20.2 L10.1,20.4 L10.7,23.3 Z M4.2,19.7 C4.2,19.8 4.2,19.8 4.2,19.7 L4.2,19.7 Z M22.5,16.7 C22.5,16.8 22.6,16.8 22.5,16.7 L22.5,16.7 Z M2.5,16.7 L2.5,16.7 C2.5,16.8 2.5,16.7 2.5,16.7 Z M22.5,9.2 C22.5,9.3 22.5,9.3 22.5,9.2 L22.5,9.2 Z M2.4,9.2 L2.4,9.2 L2.4,9.2 Z M20.8,6.2 L20.8,6.2 C20.8,6.3 20.8,6.3 20.8,6.2 Z M12.5,18 C9.7,18 7.5,15.8 7.5,13 C7.5,10.2 9.8,8 12.5,8 C15.3,8 17.5,10.2 17.5,13 C17.5,15.8 15.3,18 12.5,18 Z M12.5,9.6 C10.6,9.6 9.1,11.1 9.1,13 C9.1,14.9 10.6,16.4 12.5,16.4 C14.4,16.4 15.9,14.9 15.9,13 C15.9,11.1 14.4,9.6 12.5,9.6 Z" id="outline"></path>
        </g>
    </g>
</svg>